#!OML:ASF X:\für Bonn\!DataBase\2005_08_12_Daniel\c3d\Daniel.ASF
:FULLY-SPECIFIED
:DEGREES
266
root 7.27331 16.8129 -1.35211 -735.567 -69.3939 730.153
lowerback 5.64887 -8.82845 3.95535
upperback 1.7997 -11.5547 1.29946
thorax -1.75334 -5.78889 0.0393165
lowerneck 8.84168 14.0168 6.74669
upperneck 4.39049 19.4535 -13.4832
head 1.89196 9.81478 -4.96462
rclavicle 5.73494e-014 4.77083e-015
rhumerus -41.3598 -4.4525 -86.0718
rradius 39.3902
rwrist 2.62177
rhand -19.0168 11.1366
rfingers 7.12502
rthumb 7.28891 -18.7179
lclavicle 5.73494e-014 4.77083e-015
lhumerus -35.2517 6.55629 85.9719
lradius 123.798
lwrist 202.033
lhand -9.73251 18.3136
lfingers 7.12502
lthumb 16.2412 47.6534
rfemur -25.0624 4.17312 9.77691
rtibia 45.6731
rfoot -13.7953 7.67306
rtoes -8.30051
lfemur 4.82817 -12.6735 -16.9017
ltibia 52.1107
lfoot -8.49552 -17.022
ltoes -14.5044
267
root 7.37087 16.7824 -1.32646 -735.512 -69.0961 730.122
lowerback 5.69124 -8.7801 3.7596
upperback 1.79416 -11.499 1.19602
thorax -1.7645 -5.76038 0.0386955
lowerneck 8.54119 13.878 6.90604
upperneck 4.50796 19.2865 -13.3529
head 1.95834 9.7216 -4.92708
rclavicle -5.96354e-014 6.36111e-015
rhumerus -41.0708 -4.41253 -86.4569
rradius 39.7487
rwrist 2.5696
rhand -19.0567 11.3743
rfingers 7.12502
rthumb 7.25039 -18.4815
lclavicle -5.96354e-014 6.36111e-015
lhumerus -35.7029 6.66754 85.8939
lradius 123.726
lwrist 202.133
lhand -10.034 18.3919
lfingers 7.12502
lthumb 15.9509 47.7551
rfemur -25.5361 3.86212 9.42489
rtibia 45.9479
rfoot -13.5568 7.66262
rtoes -8.55095
lfemur 4.85003 -13.101 -17.0175
ltibia 51.6644
lfoot -9.48004 -17.8606
ltoes -13.5122
268
root 7.47303 16.7508 -1.29947 -735.543 -68.8309 730.171
lowerback 5.78859 -8.72225 3.56123
upperback 1.78305 -11.4283 1.06976
thorax -1.81545 -5.72452 0.0253606
lowerneck 8.29561 13.7185 7.08715
upperneck 4.60902 19.0909 -13.2309
head 2.01106 9.61721 -4.9019
rclavicle 5.33737e-014 -3.49861e-014
rhumerus -40.7708 -4.39902 -86.8176
rradius 40.0277
rwrist 2.54091
rhand -19.069 11.631
rfingers 7.12502
rthumb 7.23854 -18.2252
lclavicle 5.33737e-014 -3.49861e-014
lhumerus -36.1545 6.78566 85.7891
lradius 123.646
lwrist 202.243
lhand -10.3027 18.5475
lfingers 7.12502
lthumb 15.6921 47.9312
rfemur -26.0142 3.59225 9.03714
rtibia 46.2096
rfoot -13.2662 7.65662
rtoes -8.58569
lfemur 4.87862 -13.487 -17.1714
ltibia 51.2344
lfoot -10.5421 -18.6732
ltoes -12.4886
269
root 7.57837 16.7179 -1.27106 -735.602 -68.6065 730.238
lowerback 5.92001 -8.65287 3.35517
upperback 1.77141 -11.3419 0.95378
thorax -1.88175 -5.68088 0.0302954
lowerneck 8.10671 13.5466 7.19904
upperneck 4.65609 18.8656 -13.0777
head 2.02642 9.50081 -4.86754
rclavicle -1.3418e-014 7.95139e-015
rhumerus -40.4715 -4.37041 -87.1525
rradius 40.2872
rwrist 2.51761
rhand -19.1594 11.8499
rfingers 7.12502
rthumb 7.15126 -18.0092
lclavicle -1.3418e-014 7.95139e-015
lhumerus -36.653 6.93566 85.7122
lradius 123.574
lwrist 202.328
lhand -10.487 18.7786
lfingers 7.12502
lthumb 15.5146 48.1761
rfemur -26.5056 3.35082 8.64283
rtibia 46.4688
rfoot -12.9405 7.66133
rtoes -8.62805
lfemur 4.94368 -13.8598 -17.3569
ltibia 50.8049
lfoot -11.7369 -19.4394
ltoes -11.7288
270
root 7.68806 16.683 -1.24084 -735.711 -68.4202 730.359
lowerback 6.07547 -8.56712 3.16739
upperback 1.75967 -11.2327 0.810187
thorax -1.96994 -5.62584 0.000297391
lowerneck 7.94588 13.3411 7.30621
upperneck 4.66378 18.5892 -12.8772
head 2.01566 9.36163 -4.82563
rclavicle 6.35614e-014 -7.95139e-015
rhumerus -40.1538 -4.35851 -87.4839
rradius 40.4632
rwrist 2.52488
rhand -19.2225 12.0471
rfingers 7.12502
rthumb 7.09042 -17.8142
lclavicle 6.35614e-014 -7.95139e-015
lhumerus -37.2168 7.0554 85.6046
lradius 123.584
lwrist 202.39
lhand -10.5935 19.0042
lfingers 7.12502
lthumb 15.4121 48.4097
rfemur -27.0276 3.12152 8.22988
rtibia 46.732
rfoot -12.5856 7.68837
rtoes -8.7019
lfemur 5.03204 -14.1939 -17.5698
ltibia 50.372
lfoot -13.0389 -20.1907
ltoes -11.0965
271
root 7.80114 16.646 -1.20933 -735.865 -68.2532 730.52
lowerback 6.2421 -8.46352 3.01019
upperback 1.76007 -11.0993 0.640062
thorax -2.0621 -5.55866 -0.0736796
lowerneck 7.67479 13.1146 7.31749
upperneck 4.7301 18.2726 -12.552
head 2.01602 9.19629 -4.7269
rclavicle -9.24846e-014 2.22639e-014
rhumerus -39.8518 -4.33086 -87.8259
rradius 40.6555
rwrist 2.51087
rhand -19.3605 12.1817
rfingers 7.12502
rthumb 6.95713 -17.6839
lclavicle -9.24846e-014 2.22639e-014
lhumerus -37.8052 7.14491 85.4897
lradius 123.658
lwrist 202.461
lhand -10.6688 19.1728
lfingers 7.12502
lthumb 15.3395 48.5838
rfemur -27.5644 2.91981 7.79437
rtibia 47.0004
rfoot -12.2138 7.69445
rtoes -8.78196
lfemur 5.1709 -14.5256 -17.8283
ltibia 49.9161
lfoot -14.4411 -20.859
ltoes -10.5527
272
root 7.91671 16.6065 -1.17688 -736.022 -68.105 730.687
lowerback 6.39956 -8.33821 2.90082
upperback 1.76017 -10.9357 0.450589
thorax -2.16114 -5.47655 -0.19632
lowerneck 7.39429 12.8555 7.26867
upperneck 4.77137 17.9018 -12.1634
head 1.99515 9.00415 -4.60497
rclavicle 3.72721e-014 -1.43125e-014
rhumerus -39.7145 -4.32126 -88.143
rradius 41.0988
rwrist 2.47791
rhand -19.428 12.1671
rfingers 7.12502
rthumb 6.89201 -17.7007
lclavicle 3.72721e-014 -1.43125e-014
lhumerus -38.3737 7.17794 85.3941
lradius 123.739
lwrist 202.469
lhand -10.6432 19.2189
lfingers 7.12502
lthumb 15.3642 48.628
rfemur -28.1177 2.75265 7.35265
rtibia 47.2644
rfoot -11.8486 7.70326
rtoes -8.87722
lfemur 5.35419 -14.7991 -18.1209
ltibia 49.4366
lfoot -16.0987 -21.3624
ltoes -10.4479
